<svg xmlns="http://www.w3.org/2000/svg" width="60" height="60" viewBox="0 0 60 60">
    <path fill="#C4C4C4" fill-rule="evenodd" d="M38 9a1 1 0 0 1-2 0c0-1.654-1.346-3-3-3h-6c-1.654 0-3 1.346-3 3a1 1 0 0 1-2 0c0-2.757 2.243-5 5-5h6c2.757 0 5 2.243 5 5zm21 34a1 1 0 0 0-1 1v11c0 1.654-1.346 3-3 3H5c-1.654 0-3-1.346-3-3V44a1 1 0 0 0-2 0v11c0 2.757 2.243 5 5 5h50c2.757 0 5-2.243 5-5V44a1 1 0 0 0-1-1zm-32 1a1 1 0 0 0-1 1v3c0 1.103.897 2 2 2h4c1.103 0 2-.897 2-2v-3a1 1 0 0 0-2 0v3h-4v-3a1 1 0 0 0-1-1zm33-27v20c0 2.757-2.243 5-5 5H33a1 1 0 0 1-1-1v-9h-4v9a1 1 0 0 1-1 1H5c-2.757 0-5-2.243-5-5V17c0-2.757 2.243-5 5-5h50c2.757 0 5 2.243 5 5zm-2 0c0-1.654-1.346-3-3-3h-5v23a1 1 0 0 1-2 0V14H12v23a1 1 0 0 1-2 0V14H5c-1.654 0-3 1.346-3 3v20c0 1.654 1.346 3 3 3h21v-8c0-1.103.897-2 2-2h4c1.103 0 2 .897 2 2v8h21c1.654 0 3-1.346 3-3V17zM31.03 46a1 1 0 0 0-1-1h-.01a.996.996 0 0 0-.995 1c0 .552.453 1 1.005 1a1 1 0 0 0 1-1zM19 10a1 1 0 0 0 1-1c0-3.598 3.402-7 7-7h6c3.664 0 7 3.336 7 7a1 1 0 0 0 2 0c0-4.794-4.206-9-9-9h-6c-4.71 0-9 4.29-9 9a1 1 0 0 0 1 1z"/>
</svg>
