<svg xmlns="http://www.w3.org/2000/svg" width="60" height="60" viewBox="0 0 60 60">
    <path fill="#C4C4C4" fill-rule="evenodd" d="M60 5v18c0 2.757-2.244 5-5.001 5h-24A5.005 5.005 0 0 1 26 23V12a1 1 0 0 1 2 0v11c0 1.654 1.345 3 2.999 3h24A3.005 3.005 0 0 0 58 23V5c0-1.654-1.347-3-3.001-3H23.415l6.293 6.293a.999.999 0 1 1-1.414 1.414l-8.001-8A1 1 0 0 1 21 0h33.999A5.007 5.007 0 0 1 60 5zM39 32H4.632C2.078 32 0 34.243 0 37v18c0 2.757 2.078 5 4.632 5h24.315C31.639 60 34 57.664 34 54.995V43.996A1 1 0 0 0 33 43h-.005A1 1 0 0 0 32 44.005V55c0 1.69-1.641 3-3.053 3H4.632C3.181 58 2 56.654 2 55V37c0-1.654 1.181-3 2.632-3h31.965l-6.254 6.295a1 1 0 0 0 1.419 1.41l7.947-8A1 1 0 0 0 39 32zM22 43a1 1 0 0 0-1-1H9a1 1 0 0 0 0 2h12a1 1 0 0 0 1-1zM9 48a1 1 0 0 0 0 2h4a1 1 0 0 0 0-2H9zm8 2h8a1 1 0 0 0 0-2h-8a1 1 0 0 0 0 2zM0 10V8a2 2 0 0 1 1-1.731V6c0-3.309 2.691-6 6-6h4c3.309 0 6 2.691 6 6v.269A2 2 0 0 1 18 8v2a2 2 0 0 1-1.039 1.753c-.19 1.922-1.026 3.614-1.067 3.694C14.988 17.26 13.618 20 9 20s-5.988-2.74-6.895-4.553c-.04-.08-.875-1.772-1.066-3.694A2 2 0 0 1 0 10zm2 0a1 1 0 0 1 1 1c0 1.73.886 3.536.895 3.554C4.935 16.635 5.853 18 9 18c3.146 0 4.065-1.365 5.105-3.447.009-.017.895-1.823.895-3.553a1 1 0 0 1 1-1V8a1 1 0 0 1-1-1V6c0-2.206-1.794-4-4-4H7C4.794 2 3 3.794 3 6v1a1 1 0 0 1-1 1v2zm9 0h1a1 1 0 0 0 0-2h-1a1 1 0 0 0 0 2zm-5 0h1a1 1 0 0 0 0-2H6a1 1 0 0 0 0 2zm54 30v2c0 .754-.42 1.413-1.038 1.753-.191 1.922-1.027 3.614-1.068 3.694C56.988 49.26 55.618 52 51 52s-5.988-2.74-6.895-4.553c-.04-.08-.876-1.772-1.067-3.694A2.002 2.002 0 0 1 42 42v-2c0-.739.402-1.385 1-1.731V38c0-3.309 2.691-6 6-6h4c3.309 0 6 2.691 6 6v.269c.598.346 1 .992 1 1.731zm-2 0a1 1 0 0 1-1-1v-1c0-2.206-1.794-4-4-4h-4c-2.206 0-4 1.794-4 4v1a1 1 0 0 1-1 1v2a1 1 0 0 1 1 1c0 1.73.886 3.536.895 3.554C46.935 48.635 47.853 50 51 50c3.147 0 4.065-1.365 5.105-3.447.009-.017.895-1.823.895-3.553a1 1 0 0 1 1-1v-2zm-4 0h-1a1 1 0 1 0 0 2h1a1 1 0 1 0 0-2zm-5 0h-1a1 1 0 1 0 0 2h1a1 1 0 1 0 0-2zM35 18h4a1 1 0 1 0 0-2h-4a1 1 0 1 0 0 2zm7-1a1 1 0 0 0 1 1h8a1 1 0 1 0 0-2h-8a1 1 0 0 0-1 1zm5-7H35a1 1 0 1 0 0 2h12a1 1 0 1 0 0-2z"/>
</svg>
