<svg xmlns="http://www.w3.org/2000/svg" width="60" height="60" viewBox="0 0 60 60">
    <path fill="#0252A3" fill-rule="evenodd" d="M58 26V4c0-1.103-.897-2-2-2H31v6c0 .805.55.988 1.012 1 .085 0 .381 0 .686-.522A5.001 5.001 0 0 1 37 6c2.851 0 5 2.58 5 6s-2.149 6-5 6a4.993 4.993 0 0 1-4.329-2.526C32.492 15.16 32.266 15 32 15c-.45.012-1 .195-1 1v13h13c2.201 0 3 1.794 3 3 0 .995-.542 1.874-1.487 2.41A2.988 2.988 0 0 0 44 37c0 1.738 1.682 3 4 3s4-1.262 4-3a2.958 2.958 0 0 0-1.486-2.575C49.538 33.855 49 32.994 49 32c0-1.206.799-3 3-3h7a1 1 0 0 1 1 1v26c0 2.206-1.794 4-4 4H34a1 1 0 0 1 0-2h22c1.103 0 2-.897 2-2V31h-6c-.805 0-.988.55-1 1.012 0 .085 0 .381.522.686A5.004 5.004 0 0 1 54 37c0 2.851-2.58 5-6 5s-6-2.149-6-5c0-1.784.968-3.443 2.525-4.329.315-.179.475-.405.475-.671-.012-.45-.195-1-1-1H31v13c0 2.201-1.794 3-3 3-.995 0-1.874-.542-2.41-1.487A2.988 2.988 0 0 0 23 44c-1.738 0-3 1.682-3 4s1.262 4 3 4a2.958 2.958 0 0 0 2.575-1.486C26.145 49.538 27.006 49 28 49c1.206 0 3 .799 3 3v7a1 1 0 0 1-1 1H4c-2.206 0-4-1.794-4-4V34a1 1 0 0 1 2 0v22c0 1.103.897 2 2 2h25v-6c0-.805-.55-.988-1.012-1-.085 0-.381 0-.686.522A5.004 5.004 0 0 1 23 54c-2.851 0-5-2.58-5-6s2.149-6 5-6c1.784 0 3.443.968 4.329 2.525.179.315.405.475.671.475.45-.012 1-.195 1-1V31H16c-2.201 0-3-1.794-3-3 0-.993.541-1.871 1.485-2.409A2.988 2.988 0 0 0 16 23c0-1.738-1.682-3-4-3s-4 1.262-4 3c0 1.069.556 2.032 1.486 2.575C10.462 26.145 11 27.006 11 28c0 1.206-.799 3-3 3H1a1 1 0 0 1-1-1V4c0-2.206 1.794-4 4-4h22a1 1 0 0 1 0 2H4c-1.103 0-2 .897-2 2v25h6c.805 0 .988-.55 1-1.012 0-.085 0-.381-.522-.686A5.001 5.001 0 0 1 6 23c0-2.851 2.58-5 6-5s6 2.149 6 5a4.993 4.993 0 0 1-2.526 4.329c-.314.179-.474.405-.474.671.012.45.195 1 1 1h13V16c0-2.201 1.794-3 3-3 .993 0 1.871.541 2.409 1.485A2.988 2.988 0 0 0 37 16c1.738 0 3-1.682 3-4s-1.262-4-3-4a2.958 2.958 0 0 0-2.575 1.486C33.855 10.462 32.994 11 32 11c-1.206 0-3-.799-3-3V1a1 1 0 0 1 1-1h26c2.206 0 4 1.794 4 4v22a1 1 0 0 1-2 0"/>
</svg>
