<svg xmlns="http://www.w3.org/2000/svg" width="36" height="52" viewBox="0 0 36 52">
    <path fill="#0252A3" fill-rule="evenodd" d="M18 12c3.309 0 6 2.691 6 6s-2.691 6-6 6-6-2.691-6-6 2.691-6 6-6zm0 14c4.411 0 8-3.589 8-8s-3.589-8-8-8-8 3.589-8 8 3.589 8 8 8zm0-24c8.822 0 16 7.178 16 16 0 7.064-3.771 12.36-3.839 12.455L18 49.165 5.85 30.472C5.811 30.41 2 24.206 2 18 2 9.178 9.178 2 18 2zm-.838 49.545a.999.999 0 0 0 1.676 0l12.971-19.957C31.979 31.353 36 25.736 36 18c0-9.925-8.075-18-18-18S0 8.075 0 18c0 6.77 3.981 13.255 4.162 13.545l13 20z"/>
</svg>
