<svg xmlns="http://www.w3.org/2000/svg" width="60" height="60" viewBox="0 0 60 60">
    <path fill="#0252A3" fill-rule="evenodd" d="M58 53c0 2.757-2.243 5-5 5H41.721l-.667-2H55a1 1 0 1 0 0-2h-6l4.465-5.953C56.001 48.286 58 50.402 58 53zm-42.382 3h23.328l.667 2H14.618l1-2zM59 47a1 1 0 0 0 1-1v-3c0-3.86-3.141-7-7-7a1 1 0 0 0-1 1v9.667L46.5 54h-6.112l-2-6H49a1 1 0 1 0 0-2H37a1 1 0 0 0-.948 1.316L38.279 54H16.618l3-6H23a1 1 0 0 0 0-2H11a1 1 0 0 0 0 2h6.382l-2.865 5.73-9.145-3.659a1.001 1.001 0 0 0-.744 1.858l8.991 3.596L12.382 58H7c-2.757 0-5-2.243-5-5s2.243-5 5-5a.997.997 0 0 0 1-1l-.001-10a1 1 0 0 0-1-1C3.14 36 0 39.14 0 43v3a1 1 0 0 0 2 0v-3a5.007 5.007 0 0 1 3.999-4.899L6 46.071c-3.388.487-6 3.408-6 6.929 0 3.86 3.14 7 7 7h46c3.859 0 7-3.14 7-7 0-3.521-2.612-6.442-6-6.929v-7.97c2.279.464 4 2.484 4 4.899v3a1 1 0 0 0 1 1zM30 12c3.309 0 6 2.691 6 6s-2.691 6-6 6-6-2.691-6-6 2.691-6 6-6zm0 14c4.411 0 8-3.589 8-8s-3.589-8-8-8-8 3.589-8 8 3.589 8 8 8zm0-24c8.822 0 16 7.178 16 16 0 7.064-3.771 12.36-3.839 12.455L30 49.165 17.85 30.472C17.811 30.41 14 24.206 14 18c0-8.822 7.178-16 16-16zm-.838 49.545a.999.999 0 0 0 1.676 0l12.971-19.957C43.979 31.353 48 25.736 48 18c0-9.925-8.075-18-18-18S12 8.075 12 18c0 6.77 3.981 13.255 4.162 13.545l13 20z"/>
</svg>
