<svg xmlns="http://www.w3.org/2000/svg" width="54" height="54" viewBox="0 0 54 54">
    <path fill="#0252A3" fill-rule="evenodd" d="M53.707 41.835c.39.393.39 1.03 0 1.422l-2.8 2.822a.993.993 0 0 1-1.412 0 1.01 1.01 0 0 1 0-1.422l2.093-2.11-9.972-10.041-4.986 5.02c-3.185 3.207-9.477 3.343-16.355-3.582-6.37-6.412-6.726-12.319-4.215-15.704l-7.882-7.938a1.011 1.011 0 0 1 0-1.422.995.995 0 0 1 1.413 0l8.537 8.597a1.01 1.01 0 0 1 0 1.422c-2.48 2.499-2.342 7.68 3.56 13.623 5.902 5.942 11.048 6.08 13.53 3.582l5.691-5.732a1.023 1.023 0 0 1 1.413 0l11.385 11.463zm-14.23-2.866a.993.993 0 0 0-1.413 0 1.011 1.011 0 0 0 0 1.423l7.817 7.87c-4.149 3.817-8.447 4.689-13.145 2.663-.069-.027-7.037-2.9-16.741-12.672C6.328 28.52 3.435 21.466 3.374 21.321c-2.5-5.033-1.556-8.927 3.37-13.884l4.986-5.02 9.972 10.04-2.14 2.154a1.01 1.01 0 0 0 0 1.423.995.995 0 0 0 1.413 0l2.847-2.866a1.012 1.012 0 0 0 0-1.422L12.436.283a1.023 1.023 0 0 0-1.412 0L5.332 6.014c-5.586 5.623-6.67 10.317-3.78 16.13.12.3 3.038 7.472 13.03 17.532 9.992 10.06 17.114 12.997 17.39 13.108 1.879.812 3.725 1.216 5.533 1.216 3.677 0 7.196-1.674 10.51-5.011a1.007 1.007 0 0 0 0-1.422l-8.538-8.598z"/>
</svg>
