<svg xmlns="http://www.w3.org/2000/svg" width="61" height="60" viewBox="0 0 61 60">
    <path fill="#0252A3" fill-rule="evenodd" d="M53.758 47.91a.999.999 0 0 1 0 1.414l-2.802 2.805a.997.997 0 0 1-1.414 0 .999.999 0 0 1 0-1.414l2.095-2.097-9.982-9.983-4.99 4.99c-3.188 3.189-9.486 3.325-16.37-3.56-6.376-6.375-6.733-12.247-4.22-15.613L8.186 16.56A1 1 0 0 1 9.6 15.147l8.545 8.547a.999.999 0 0 1 0 1.414c-2.483 2.484-2.344 7.635 3.563 13.543 5.908 5.908 11.06 6.044 13.543 3.56l5.697-5.697a1.03 1.03 0 0 1 1.414 0L53.758 47.91zm-14.244-2.85a.999.999 0 1 0-1.414 1.415l7.825 7.825c-4.153 3.794-8.456 4.66-13.158 2.647-.069-.027-7.044-2.884-16.757-12.598-9.676-9.676-12.572-16.69-12.633-16.834C.875 22.512 1.82 18.64 6.751 13.712l4.99-4.99 9.982 9.98-2.142 2.143a.999.999 0 1 0 1.414 1.414l2.85-2.85a1.002 1.002 0 0 0 0-1.413L12.448 6.6a1.03 1.03 0 0 0-1.414 0l-5.697 5.698c-5.59 5.59-6.677 10.257-3.784 16.036.121.298 3.041 7.428 13.042 17.429 10.002 10.002 17.131 12.922 17.408 13.032 1.88.807 3.728 1.209 5.538 1.209 3.68 0 7.202-1.664 10.52-4.982a.997.997 0 0 0 0-1.414l-8.547-8.547zM52.421 7.62C47.381 2.58 40.305-.206 33.002.012a1.001 1.001 0 0 0-.972 1.028c.016.553.484 1.007 1.028.972 6.741-.175 13.295 2.37 17.95 7.022 4.651 4.652 7.212 11.195 7.022 17.95-.015.552.42 1.012.972 1.028h.03c.538 0 .982-.43.998-.972.204-7.302-2.569-14.381-7.609-19.42zm-19.39.392h.015c5.29-.094 10.291 1.838 13.718 5.265 3.503 3.505 5.423 8.5 5.266 13.705a1 1 0 0 0 .97 1.03h.031a1 1 0 0 0 1-.97c.172-5.754-1.96-11.286-5.853-15.18-3.807-3.806-9.296-5.92-15.164-5.85a1 1 0 0 0 .016 2zm0 6c2.233 0 6.44.456 9.491 3.508 3.052 3.054 3.508 7.258 3.508 9.492a1 1 0 1 0 2 0c0-2.543-.532-7.343-4.094-10.906-3.562-3.562-8.362-4.094-10.906-4.094a1 1 0 1 0 0 2z"/>
</svg>
